<svg width="25" height="25" viewBox="0 0 25 25" fill="none" xmlns="http://www.w3.org/2000/svg">
<path d="M2.05371 12.5C2.05371 8.72876 2.05371 6.84315 3.22528 5.67157C4.39686 4.5 6.28247 4.5 10.0537 4.5H14.0537C17.8249 4.5 19.7106 4.5 20.8821 5.67157C22.0537 6.84315 22.0537 8.72876 22.0537 12.5V14.5C22.0537 18.2712 22.0537 20.1569 20.8821 21.3284C19.7106 22.5 17.8249 22.5 14.0537 22.5H10.0537C6.28247 22.5 4.39686 22.5 3.22528 21.3284C2.05371 20.1569 2.05371 18.2712 2.05371 14.5V12.5Z" stroke="#404040" stroke-width="1.5"/>
<path d="M7.05371 4.5V3" stroke="#404040" stroke-width="1.5" stroke-linecap="round"/>
<path d="M17.0537 4.5V3" stroke="#404040" stroke-width="1.5" stroke-linecap="round"/>
<path d="M9.05371 15L10.5537 13.5V17.5" stroke="#404040" stroke-width="1.5" stroke-linecap="round" stroke-linejoin="round"/>
<path d="M13.0537 16.5V14.5C13.0537 13.9477 13.5014 13.5 14.0537 13.5C14.606 13.5 15.0537 13.9477 15.0537 14.5V16.5C15.0537 17.0523 14.606 17.5 14.0537 17.5C13.5014 17.5 13.0537 17.0523 13.0537 16.5Z" stroke="#404040" stroke-width="1.5" stroke-linecap="round"/>
<path d="M2.55371 9.5H21.5537" stroke="#404040" stroke-width="1.5" stroke-linecap="round"/>
</svg>
