<svg width="27" height="27" viewBox="0 0 27 27" fill="none" xmlns="http://www.w3.org/2000/svg">
<path d="M12.5365 20.1182H5.25488" stroke="#404040" stroke-width="1.5" stroke-linecap="round" stroke-linejoin="round"/>
<path fill-rule="evenodd" clip-rule="evenodd" d="M17.1055 20.1192C17.1055 22.4161 17.8715 23.1811 20.1674 23.1811C22.4634 23.1811 23.2294 22.4161 23.2294 20.1192C23.2294 17.8221 22.4634 17.0571 20.1674 17.0571C17.8715 17.0571 17.1055 17.8221 17.1055 20.1192Z" stroke="#404040" stroke-width="1.5" stroke-linecap="round" stroke-linejoin="round"/>
<path d="M15.9482 8.31836H23.2288" stroke="#404040" stroke-width="1.5" stroke-linecap="round" stroke-linejoin="round"/>
<path fill-rule="evenodd" clip-rule="evenodd" d="M11.38 8.3169C11.38 6.0209 10.6139 5.25488 8.3179 5.25488C6.02088 5.25488 5.25488 6.0209 5.25488 8.3169C5.25488 10.6139 6.02088 11.3789 8.3179 11.3789C10.6139 11.3789 11.38 10.6139 11.38 8.3169Z" stroke="#404040" stroke-width="1.5" stroke-linecap="round" stroke-linejoin="round"/>
</svg>
